<svg width="126" height="49" viewBox="0 0 126 49" fill="none" xmlns="http://www.w3.org/2000/svg">
<path d="M21.7736 19V5.62H16.6336V5H27.5736V5.62H22.4336V19H21.7736ZM32.6936 19.06C31.7203 19.06 30.8469 18.84 30.0736 18.4C29.3136 17.9467 28.7069 17.32 28.2536 16.52C27.8136 15.72 27.5936 14.8133 27.5936 13.8C27.5936 12.7733 27.8136 11.8667 28.2536 11.08C28.7069 10.2933 29.3136 9.67333 30.0736 9.22C30.8469 8.76667 31.7203 8.54 32.6936 8.54C33.6669 8.54 34.5403 8.76667 35.3136 9.22C36.0869 9.67333 36.6936 10.2933 37.1336 11.08C37.5736 11.8667 37.7936 12.7733 37.7936 13.8C37.7936 14.8133 37.5736 15.72 37.1336 16.52C36.6936 17.32 36.0869 17.9467 35.3136 18.4C34.5403 18.84 33.6669 19.06 32.6936 19.06ZM32.6936 18.46C33.5469 18.46 34.3069 18.2667 34.9736 17.88C35.6536 17.48 36.1803 16.9267 36.5536 16.22C36.9403 15.5133 37.1336 14.7067 37.1336 13.8C37.1336 12.88 36.9403 12.0733 36.5536 11.38C36.1803 10.6733 35.6536 10.1267 34.9736 9.74C34.3069 9.35333 33.5469 9.16 32.6936 9.16C31.8536 9.16 31.1003 9.35333 30.4336 9.74C29.7669 10.1267 29.2336 10.6733 28.8336 11.38C28.4469 12.0733 28.2536 12.88 28.2536 13.8C28.2536 14.7067 28.4469 15.5133 28.8336 16.22C29.2336 16.9267 29.7669 17.48 30.4336 17.88C31.1003 18.2667 31.8536 18.46 32.6936 18.46ZM44.9587 19.06C43.9987 19.06 43.1321 18.84 42.3587 18.4C41.5987 17.9467 40.9921 17.3267 40.5387 16.54C40.0987 15.74 39.8787 14.8267 39.8787 13.8C39.8787 12.76 40.0987 11.8533 40.5387 11.08C40.9921 10.2933 41.5987 9.67333 42.3587 9.22C43.1321 8.76667 43.9987 8.54 44.9587 8.54C45.8921 8.54 46.7321 8.76 47.4787 9.2C48.2254 9.64 48.8121 10.2533 49.2387 11.04C49.6787 11.8267 49.8987 12.7467 49.8987 13.8C49.8987 14.84 49.6787 15.76 49.2387 16.56C48.8121 17.36 48.2254 17.98 47.4787 18.42C46.7321 18.8467 45.8921 19.06 44.9587 19.06ZM44.9787 18.46C45.8321 18.46 46.5921 18.2667 47.2587 17.88C47.9254 17.48 48.4521 16.9267 48.8387 16.22C49.2254 15.5133 49.4187 14.7067 49.4187 13.8C49.4187 12.88 49.2254 12.0733 48.8387 11.38C48.4521 10.6733 47.9254 10.1267 47.2587 9.74C46.5921 9.35333 45.8321 9.16 44.9787 9.16C44.1387 9.16 43.3854 9.35333 42.7187 9.74C42.0521 10.1267 41.5187 10.6733 41.1187 11.38C40.7321 12.0733 40.5387 12.88 40.5387 13.8C40.5387 14.7067 40.7321 15.5133 41.1187 16.22C41.5187 16.9267 42.0521 17.48 42.7187 17.88C43.3854 18.2667 44.1387 18.46 44.9787 18.46ZM49.4387 19V15.36L49.6187 13.78L49.4187 12.2V4.16H50.0787V19H49.4387ZM58.4358 19.06C57.4624 19.06 56.5891 18.84 55.8158 18.4C55.0558 17.9467 54.4491 17.32 53.9958 16.52C53.5558 15.72 53.3358 14.8133 53.3358 13.8C53.3358 12.7733 53.5558 11.8667 53.9958 11.08C54.4491 10.2933 55.0558 9.67333 55.8158 9.22C56.5891 8.76667 57.4624 8.54 58.4358 8.54C59.4091 8.54 60.2824 8.76667 61.0558 9.22C61.8291 9.67333 62.4358 10.2933 62.8758 11.08C63.3158 11.8667 63.5358 12.7733 63.5358 13.8C63.5358 14.8133 63.3158 15.72 62.8758 16.52C62.4358 17.32 61.8291 17.9467 61.0558 18.4C60.2824 18.84 59.4091 19.06 58.4358 19.06ZM58.4358 18.46C59.2891 18.46 60.0491 18.2667 60.7158 17.88C61.3958 17.48 61.9224 16.9267 62.2958 16.22C62.6824 15.5133 62.8758 14.7067 62.8758 13.8C62.8758 12.88 62.6824 12.0733 62.2958 11.38C61.9224 10.6733 61.3958 10.1267 60.7158 9.74C60.0491 9.35333 59.2891 9.16 58.4358 9.16C57.5958 9.16 56.8424 9.35333 56.1758 9.74C55.5091 10.1267 54.9758 10.6733 54.5758 11.38C54.1891 12.0733 53.9958 12.88 53.9958 13.8C53.9958 14.7067 54.1891 15.5133 54.5758 16.22C54.9758 16.9267 55.5091 17.48 56.1758 17.88C56.8424 18.2667 57.5958 18.46 58.4358 18.46ZM69.3009 19.06C68.4476 19.06 67.6476 18.9333 66.9009 18.68C66.1543 18.4133 65.5876 18.08 65.2009 17.68L65.5209 17.16C65.9076 17.5067 66.4343 17.8133 67.1009 18.08C67.7676 18.3467 68.5076 18.48 69.3209 18.48C70.4809 18.48 71.3143 18.28 71.8209 17.88C72.3409 17.48 72.6009 16.96 72.6009 16.32C72.6009 15.8533 72.4743 15.4867 72.2209 15.22C71.9676 14.9533 71.6343 14.7467 71.2209 14.6C70.8076 14.4533 70.3476 14.34 69.8409 14.26C69.3476 14.1667 68.8476 14.0667 68.3409 13.96C67.8343 13.84 67.3743 13.6867 66.9609 13.5C66.5476 13.3 66.2143 13.0267 65.9609 12.68C65.7076 12.3333 65.5809 11.8733 65.5809 11.3C65.5809 10.8067 65.7143 10.3533 65.9809 9.94C66.2609 9.52667 66.6809 9.19333 67.2409 8.94C67.8009 8.67333 68.5143 8.54 69.3809 8.54C70.0209 8.54 70.6609 8.64 71.3009 8.84C71.9543 9.02667 72.4743 9.28 72.8609 9.6L72.5209 10.12C72.1076 9.78667 71.6209 9.54 71.0609 9.38C70.5143 9.22 69.9476 9.14 69.3609 9.14C68.2809 9.14 67.4943 9.34667 67.0009 9.76C66.5076 10.1733 66.2609 10.68 66.2609 11.28C66.2609 11.76 66.3876 12.1467 66.6409 12.44C66.8943 12.72 67.2276 12.9333 67.6409 13.08C68.0543 13.2267 68.5076 13.3467 69.0009 13.44C69.5076 13.5333 70.0076 13.6333 70.5009 13.74C71.0076 13.8467 71.4676 13.9933 71.8809 14.18C72.2943 14.3667 72.6276 14.6267 72.8809 14.96C73.1343 15.2933 73.2609 15.7467 73.2609 16.32C73.2609 16.8533 73.1076 17.3333 72.8009 17.76C72.5076 18.1733 72.0676 18.4933 71.4809 18.72C70.9076 18.9467 70.1809 19.06 69.3009 19.06ZM85.1741 19.06C84.2007 19.06 83.3274 18.84 82.5541 18.4C81.7941 17.9467 81.1874 17.32 80.7341 16.52C80.2941 15.72 80.0741 14.8133 80.0741 13.8C80.0741 12.7733 80.2941 11.8667 80.7341 11.08C81.1874 10.2933 81.7941 9.67333 82.5541 9.22C83.3274 8.76667 84.2007 8.54 85.1741 8.54C86.1474 8.54 87.0207 8.76667 87.7941 9.22C88.5674 9.67333 89.1741 10.2933 89.6141 11.08C90.0541 11.8667 90.2741 12.7733 90.2741 13.8C90.2741 14.8133 90.0541 15.72 89.6141 16.52C89.1741 17.32 88.5674 17.9467 87.7941 18.4C87.0207 18.84 86.1474 19.06 85.1741 19.06ZM85.1741 18.46C86.0274 18.46 86.7874 18.2667 87.4541 17.88C88.1341 17.48 88.6607 16.9267 89.0341 16.22C89.4207 15.5133 89.6141 14.7067 89.6141 13.8C89.6141 12.88 89.4207 12.0733 89.0341 11.38C88.6607 10.6733 88.1341 10.1267 87.4541 9.74C86.7874 9.35333 86.0274 9.16 85.1741 9.16C84.3341 9.16 83.5807 9.35333 82.9141 9.74C82.2474 10.1267 81.7141 10.6733 81.3141 11.38C80.9274 12.0733 80.7341 12.88 80.7341 13.8C80.7341 14.7067 80.9274 15.5133 81.3141 16.22C81.7141 16.9267 82.2474 17.48 82.9141 17.88C83.5807 18.2667 84.3341 18.46 85.1741 18.46ZM96.0392 19.06C95.1859 19.06 94.3859 18.9333 93.6392 18.68C92.8925 18.4133 92.3259 18.08 91.9392 17.68L92.2592 17.16C92.6459 17.5067 93.1725 17.8133 93.8392 18.08C94.5059 18.3467 95.2459 18.48 96.0592 18.48C97.2192 18.48 98.0525 18.28 98.5592 17.88C99.0792 17.48 99.3392 16.96 99.3392 16.32C99.3392 15.8533 99.2125 15.4867 98.9592 15.22C98.7059 14.9533 98.3725 14.7467 97.9592 14.6C97.5459 14.4533 97.0859 14.34 96.5792 14.26C96.0859 14.1667 95.5859 14.0667 95.0792 13.96C94.5725 13.84 94.1125 13.6867 93.6992 13.5C93.2859 13.3 92.9525 13.0267 92.6992 12.68C92.4459 12.3333 92.3192 11.8733 92.3192 11.3C92.3192 10.8067 92.4525 10.3533 92.7192 9.94C92.9992 9.52667 93.4192 9.19333 93.9792 8.94C94.5392 8.67333 95.2525 8.54 96.1192 8.54C96.7592 8.54 97.3992 8.64 98.0392 8.84C98.6925 9.02667 99.2125 9.28 99.5992 9.6L99.2592 10.12C98.8459 9.78667 98.3592 9.54 97.7992 9.38C97.2525 9.22 96.6859 9.14 96.0992 9.14C95.0192 9.14 94.2325 9.34667 93.7392 9.76C93.2459 10.1733 92.9992 10.68 92.9992 11.28C92.9992 11.76 93.1259 12.1467 93.3792 12.44C93.6325 12.72 93.9659 12.9333 94.3792 13.08C94.7925 13.2267 95.2459 13.3467 95.7392 13.44C96.2459 13.5333 96.7459 13.6333 97.2392 13.74C97.7459 13.8467 98.2059 13.9933 98.6192 14.18C99.0325 14.3667 99.3659 14.6267 99.6192 14.96C99.8725 15.2933 99.9992 15.7467 99.9992 16.32C99.9992 16.8533 99.8459 17.3333 99.5392 17.76C99.2459 18.1733 98.8059 18.4933 98.2192 18.72C97.6459 18.9467 96.9192 19.06 96.0392 19.06ZM26.9356 43.06C25.9089 43.06 25.0023 42.84 24.2156 42.4C23.4289 41.9467 22.8089 41.32 22.3556 40.52C21.9023 39.72 21.6756 38.8133 21.6756 37.8C21.6756 36.7733 21.8823 35.8667 22.2956 35.08C22.7223 34.2933 23.3023 33.6733 24.0356 33.22C24.7823 32.7667 25.6223 32.54 26.5556 32.54C27.4756 32.54 28.3023 32.76 29.0356 33.2C29.7823 33.64 30.3623 34.2533 30.7756 35.04C31.2023 35.8133 31.4156 36.7067 31.4156 37.72C31.4156 37.7467 31.4156 37.78 31.4156 37.82C31.4156 37.8467 31.4156 37.8733 31.4156 37.9H22.1156V37.36H31.0556L30.7956 37.68C30.7956 36.8133 30.6089 36.04 30.2356 35.36C29.8756 34.6667 29.3756 34.1267 28.7356 33.74C28.0956 33.34 27.3689 33.14 26.5556 33.14C25.7423 33.14 25.0156 33.34 24.3756 33.74C23.7356 34.1267 23.2289 34.6667 22.8556 35.36C22.4956 36.04 22.3156 36.82 22.3156 37.7V37.82C22.3156 38.7267 22.5156 39.5333 22.9156 40.24C23.3156 40.9333 23.8623 41.48 24.5556 41.88C25.2489 42.2667 26.0423 42.46 26.9356 42.46C27.6156 42.46 28.2556 42.3333 28.8556 42.08C29.4689 41.8267 29.9756 41.44 30.3756 40.92L30.7956 41.36C30.329 41.92 29.7556 42.3467 29.0756 42.64C28.4089 42.92 27.6956 43.06 26.9356 43.06ZM37.0967 43L32.3567 32.62H33.0767L37.5767 42.6H37.2767L41.7967 32.62H42.4967L37.7567 43H37.0967ZM48.5958 43.06C47.5691 43.06 46.6624 42.84 45.8758 42.4C45.0891 41.9467 44.4691 41.32 44.0158 40.52C43.5624 39.72 43.3358 38.8133 43.3358 37.8C43.3358 36.7733 43.5424 35.8667 43.9558 35.08C44.3824 34.2933 44.9624 33.6733 45.6958 33.22C46.4424 32.7667 47.2824 32.54 48.2158 32.54C49.1358 32.54 49.9624 32.76 50.6958 33.2C51.4424 33.64 52.0224 34.2533 52.4358 35.04C52.8624 35.8133 53.0758 36.7067 53.0758 37.72C53.0758 37.7467 53.0758 37.78 53.0758 37.82C53.0758 37.8467 53.0758 37.8733 53.0758 37.9H43.7758V37.36H52.7158L52.4558 37.68C52.4558 36.8133 52.2691 36.04 51.8958 35.36C51.5358 34.6667 51.0358 34.1267 50.3958 33.74C49.7558 33.34 49.0291 33.14 48.2158 33.14C47.4024 33.14 46.6758 33.34 46.0358 33.74C45.3958 34.1267 44.8891 34.6667 44.5158 35.36C44.1558 36.04 43.9758 36.82 43.9758 37.7V37.82C43.9758 38.7267 44.1758 39.5333 44.5758 40.24C44.9758 40.9333 45.5224 41.48 46.2158 41.88C46.9091 42.2667 47.7024 42.46 48.5958 42.46C49.2758 42.46 49.9158 42.3333 50.5158 42.08C51.1291 41.8267 51.6358 41.44 52.0358 40.92L52.4558 41.36C51.9891 41.92 51.4158 42.3467 50.7358 42.64C50.0691 42.92 49.3558 43.06 48.5958 43.06ZM61.2322 32.54C62.0855 32.54 62.8188 32.7067 63.4322 33.04C64.0588 33.3733 64.5455 33.8667 64.8922 34.52C65.2388 35.16 65.4122 35.9533 65.4122 36.9V43H64.7522V36.94C64.7522 35.7 64.4388 34.76 63.8122 34.12C63.1855 33.48 62.3055 33.16 61.1722 33.16C60.3055 33.16 59.5588 33.3333 58.9322 33.68C58.3055 34.0267 57.8255 34.52 57.4922 35.16C57.1588 35.8 56.9922 36.5467 56.9922 37.4V43H56.3322V32.62H56.9722V35.54L56.8922 35.36C57.2122 34.4933 57.7388 33.8067 58.4722 33.3C59.2188 32.7933 60.1388 32.54 61.2322 32.54ZM72.5506 43.06C71.6973 43.06 71.044 42.82 70.5906 42.34C70.1373 41.86 69.9106 41.2133 69.9106 40.4V30.34H70.5706V40.3C70.5706 41.0067 70.744 41.5467 71.0906 41.92C71.4373 42.2933 71.944 42.48 72.6106 42.48C73.2906 42.48 73.8506 42.2733 74.2906 41.86L74.6306 42.34C74.3773 42.58 74.064 42.76 73.6906 42.88C73.3173 43 72.9373 43.06 72.5506 43.06ZM67.9506 33.2V32.62H73.9906V33.2H67.9506ZM81.092 43.06C80.1187 43.06 79.2454 42.84 78.472 42.4C77.712 41.9467 77.1054 41.32 76.652 40.52C76.212 39.72 75.992 38.8133 75.992 37.8C75.992 36.7733 76.212 35.8667 76.652 35.08C77.1054 34.2933 77.712 33.6733 78.472 33.22C79.2454 32.7667 80.1187 32.54 81.092 32.54C82.0654 32.54 82.9387 32.7667 83.712 33.22C84.4854 33.6733 85.092 34.2933 85.532 35.08C85.972 35.8667 86.192 36.7733 86.192 37.8C86.192 38.8133 85.972 39.72 85.532 40.52C85.092 41.32 84.4854 41.9467 83.712 42.4C82.9387 42.84 82.0654 43.06 81.092 43.06ZM81.092 42.46C81.9454 42.46 82.7054 42.2667 83.372 41.88C84.052 41.48 84.5787 40.9267 84.952 40.22C85.3387 39.5133 85.532 38.7067 85.532 37.8C85.532 36.88 85.3387 36.0733 84.952 35.38C84.5787 34.6733 84.052 34.1267 83.372 33.74C82.7054 33.3533 81.9454 33.16 81.092 33.16C80.252 33.16 79.4987 33.3533 78.832 33.74C78.1654 34.1267 77.632 34.6733 77.232 35.38C76.8454 36.0733 76.652 36.88 76.652 37.8C76.652 38.7067 76.8454 39.5133 77.232 40.22C77.632 40.9267 78.1654 41.48 78.832 41.88C79.4987 42.2667 80.252 42.46 81.092 42.46ZM91.9572 43.06C91.1038 43.06 90.3038 42.9333 89.5572 42.68C88.8105 42.4133 88.2438 42.08 87.8572 41.68L88.1772 41.16C88.5638 41.5067 89.0905 41.8133 89.7572 42.08C90.4238 42.3467 91.1638 42.48 91.9772 42.48C93.1372 42.48 93.9705 42.28 94.4772 41.88C94.9972 41.48 95.2572 40.96 95.2572 40.32C95.2572 39.8533 95.1305 39.4867 94.8772 39.22C94.6238 38.9533 94.2905 38.7467 93.8772 38.6C93.4638 38.4533 93.0038 38.34 92.4972 38.26C92.0038 38.1667 91.5038 38.0667 90.9972 37.96C90.4905 37.84 90.0305 37.6867 89.6172 37.5C89.2038 37.3 88.8705 37.0267 88.6172 36.68C88.3638 36.3333 88.2372 35.8733 88.2372 35.3C88.2372 34.8067 88.3705 34.3533 88.6372 33.94C88.9172 33.5267 89.3372 33.1933 89.8972 32.94C90.4572 32.6733 91.1705 32.54 92.0372 32.54C92.6772 32.54 93.3172 32.64 93.9572 32.84C94.6105 33.0267 95.1305 33.28 95.5172 33.6L95.1772 34.12C94.7638 33.7867 94.2772 33.54 93.7172 33.38C93.1705 33.22 92.6038 33.14 92.0172 33.14C90.9372 33.14 90.1505 33.3467 89.6572 33.76C89.1638 34.1733 88.9172 34.68 88.9172 35.28C88.9172 35.76 89.0438 36.1467 89.2972 36.44C89.5505 36.72 89.8838 36.9333 90.2972 37.08C90.7105 37.2267 91.1638 37.3467 91.6572 37.44C92.1638 37.5333 92.6638 37.6333 93.1572 37.74C93.6638 37.8467 94.1238 37.9933 94.5372 38.18C94.9505 38.3667 95.2838 38.6267 95.5372 38.96C95.7905 39.2933 95.9172 39.7467 95.9172 40.32C95.9172 40.8533 95.7638 41.3333 95.4572 41.76C95.1638 42.1733 94.7238 42.4933 94.1372 42.72C93.5638 42.9467 92.8372 43.06 91.9572 43.06Z" fill="white"/>
<path d="M109.845 20.439L123.912 20.439L116.879 32.6216L109.845 20.439Z" stroke="#F88446"/>
</svg>
