<svg width="35" height="33" viewBox="0 0 35 33" fill="none" xmlns="http://www.w3.org/2000/svg">
<path fill-rule="evenodd" clip-rule="evenodd" d="M6.48594 25.8474C6.51658 25.5238 6.4762 25.1974 6.36768 24.8914C6.25917 24.5854 6.08518 24.3074 5.85812 24.0771C3.53938 21.7255 2.1875 18.7153 2.1875 15.4709C2.1875 8.41616 8.75875 2.21012 17.5 2.21012C26.2413 2.21012 32.8125 8.41616 32.8125 15.4709C32.8125 22.5256 26.2413 28.7316 17.5 28.7316C15.9579 28.7354 14.4221 28.5333 12.9325 28.1305C12.4118 27.9895 11.858 28.0478 11.3772 28.294C10.5306 28.7272 8.66469 29.5538 5.61531 30.2677C6.04036 28.8247 6.33182 27.3449 6.48594 25.8474ZM4.73594 32.7165L4.77969 32.7076C8.78281 31.9054 11.2284 30.8467 12.3659 30.2655C14.0404 30.7183 15.7666 30.9456 17.5 30.9417C27.1644 30.9417 35 24.0152 35 15.4709C35 6.92653 27.1644 0 17.5 0C7.83562 0 0 6.92653 0 15.4709C0 19.3607 1.62531 22.919 4.30938 25.6375C4.12229 27.3838 3.7377 29.1027 3.16313 30.7605L3.15656 30.7848C2.99309 31.2596 2.81509 31.7291 2.62281 32.1927C2.45 32.6038 2.78469 33.0635 3.22 32.9927C3.72674 32.9088 4.23212 32.8167 4.73594 32.7165ZM17.5 11.0352C21.14 7.25363 30.2422 13.8707 17.5 22.3775C4.75781 13.8685 13.86 7.25363 17.5 11.0352Z" fill="white"/>
</svg>
