<svg width="35" height="35" viewBox="0 0 35 35" fill="none" xmlns="http://www.w3.org/2000/svg">
<path d="M17.5 0C12.8587 0 8.40752 1.84374 5.12563 5.12563C1.84374 8.40752 0 12.8587 0 17.5C0 22.1413 1.84374 26.5925 5.12563 29.8744C8.40752 33.1563 12.8587 35 17.5 35C22.1413 35 26.5925 33.1563 29.8744 29.8744C33.1563 26.5925 35 22.1413 35 17.5C35 12.8587 33.1563 8.40752 29.8744 5.12563C26.5925 1.84374 22.1413 0 17.5 0ZM4.4625 9.46313C5.17344 12.3703 10.0013 15.0194 12.5934 16.4412C13.6434 17.0166 14.3281 17.3906 14.2188 17.5C14.0423 17.675 13.8658 17.8456 13.6894 18.0119C12.7794 18.8781 11.9678 19.6503 12.0312 20.7812C12.1078 22.1681 13.3831 22.5837 14.6869 23.0059C15.9491 23.4172 17.2419 23.8372 17.5 25.1562C17.6794 26.0684 17.3359 27.3175 17.0188 28.4813C16.5484 30.1919 16.1306 31.7188 17.5 31.7188C20.7812 30.625 25.8081 24.7494 26.25 20.7812C26.5519 18.0622 21.875 16.4062 18.5938 15.3125C17.5481 14.9625 16.9422 15.4897 16.4281 15.9338C16.0519 16.2619 15.7238 16.5441 15.3125 16.4062C14.3391 16.0825 9.84375 12.0312 12.0312 10.9375C13.7375 10.0844 14.1138 10.5634 14.7153 11.3356C14.8859 11.5522 15.0719 11.7906 15.3125 12.0312C16.6447 12.6962 16.7606 11.7425 16.8941 10.6466C16.9794 9.94219 17.0713 9.17875 17.5 8.75C18.4494 7.80062 20.2672 7.01969 21.9362 6.3C23.4937 5.63063 24.9222 5.01594 25.3903 4.375C27.9917 5.93935 30.0695 8.2416 31.3597 10.9893C32.6499 13.7371 33.0943 16.8063 32.6365 19.8071C32.1787 22.8079 30.8392 25.605 28.7884 27.843C26.7375 30.081 24.0677 31.6589 21.1182 32.3763C18.1686 33.0937 15.0723 32.9183 12.2227 31.8723C9.37304 30.8263 6.89859 28.9569 5.11364 26.5015C3.32869 24.0462 2.31379 21.1158 2.19785 18.0824C2.08191 15.0491 2.87017 12.0475 4.4625 9.46313Z" fill="white"/>
</svg>
