<svg width="162" height="40" viewBox="0 0 162 40" fill="none" xmlns="http://www.w3.org/2000/svg">
<path d="M31.472 9.4V20.964C31.472 23.6893 30.7347 25.7707 29.26 27.208C27.7853 28.6267 25.6947 29.336 22.988 29.336C21.644 29.336 20.44 29.14 19.376 28.748C18.3307 28.356 17.472 27.8053 16.8 27.096C16.1093 27.8053 15.2413 28.356 14.196 28.748C13.1507 29.14 11.9653 29.336 10.64 29.336C7.93333 29.336 5.84267 28.6267 4.368 27.208C2.89333 25.7707 2.156 23.6893 2.156 20.964V9.4H6.692V20.824C6.692 22.4107 7.01867 23.5867 7.672 24.352C8.32533 25.0987 9.296 25.472 10.584 25.472C13.216 25.472 14.532 23.9227 14.532 20.824V9.4H19.068V20.824C19.068 23.9227 20.3933 25.472 23.044 25.472C25.62 25.472 26.908 23.9227 26.908 20.824V9.4H31.472ZM43.2368 25.724C44.0208 25.724 44.7115 25.612 45.3088 25.388C45.9248 25.1453 46.4941 24.772 47.0168 24.268L49.3408 26.788C47.9221 28.412 45.8501 29.224 43.1248 29.224C41.4261 29.224 39.9235 28.8973 38.6168 28.244C37.3101 27.572 36.3021 26.648 35.5928 25.472C34.8835 24.296 34.5288 22.9613 34.5288 21.468C34.5288 19.9933 34.8741 18.668 35.5648 17.492C36.2741 16.2973 37.2355 15.3733 38.4488 14.72C39.6808 14.048 41.0621 13.712 42.5928 13.712C44.0301 13.712 45.3368 14.02 46.5128 14.636C47.6888 15.2333 48.6221 16.1107 49.3128 17.268C50.0221 18.4067 50.3768 19.76 50.3768 21.328L39.2328 23.484C39.5501 24.2307 40.0448 24.7907 40.7168 25.164C41.4075 25.5373 42.2475 25.724 43.2368 25.724ZM42.5928 17.016C41.4915 17.016 40.5955 17.3707 39.9048 18.08C39.2141 18.7893 38.8501 19.7693 38.8128 21.02L46.1488 19.592C45.9435 18.808 45.5235 18.1827 44.8888 17.716C44.2541 17.2493 43.4888 17.016 42.5928 17.016ZM77.5666 27.32C76.6332 27.9547 75.4572 28.4493 74.0386 28.804C72.6386 29.1587 71.1452 29.336 69.5586 29.336C67.5799 29.336 65.8999 29.0933 64.5186 28.608C63.1372 28.104 62.0919 27.4133 61.3826 26.536C60.6732 25.64 60.3186 24.6227 60.3186 23.484C60.3186 22.4387 60.6079 21.5147 61.1866 20.712C61.7652 19.9093 62.5586 19.312 63.5666 18.92C62.8012 18.5093 62.2039 17.9493 61.7746 17.24C61.3639 16.5307 61.1586 15.7373 61.1586 14.86C61.1586 13.796 61.4852 12.8253 62.1386 11.948C62.7919 11.0707 63.7812 10.3707 65.1066 9.848C66.4319 9.32533 68.0559 9.064 69.9786 9.064C71.2479 9.064 72.4892 9.19467 73.7026 9.456C74.9159 9.69867 75.9706 10.0347 76.8666 10.464L75.6066 13.936C73.8892 13.1333 72.0692 12.732 70.1466 12.732C68.6906 12.732 67.5892 12.956 66.8426 13.404C66.1146 13.8333 65.7506 14.4213 65.7506 15.168C65.7506 15.8587 65.9932 16.3907 66.4786 16.764C66.9826 17.1187 67.7386 17.296 68.7466 17.296H74.0946V20.88H68.4666C67.3279 20.88 66.4506 21.076 65.8346 21.468C65.2186 21.86 64.9106 22.4293 64.9106 23.176C64.9106 23.96 65.3026 24.576 66.0866 25.024C66.8892 25.4533 68.1119 25.668 69.7546 25.668C70.9119 25.668 72.0692 25.5187 73.2266 25.22C74.3839 24.9027 75.3639 24.464 76.1666 23.904L77.5666 27.32ZM94.5422 13.936L88.1862 29H83.6782L77.3502 13.936H81.8582L86.0302 24.184L90.3422 13.936H94.5422ZM103.502 25.724C104.286 25.724 104.977 25.612 105.574 25.388C106.19 25.1453 106.76 24.772 107.282 24.268L109.606 26.788C108.188 28.412 106.116 29.224 103.39 29.224C101.692 29.224 100.189 28.8973 98.8824 28.244C97.5758 27.572 96.5678 26.648 95.8584 25.472C95.1491 24.296 94.7944 22.9613 94.7944 21.468C94.7944 19.9933 95.1398 18.668 95.8304 17.492C96.5398 16.2973 97.5011 15.3733 98.7144 14.72C99.9464 14.048 101.328 13.712 102.858 13.712C104.296 13.712 105.602 14.02 106.778 14.636C107.954 15.2333 108.888 16.1107 109.578 17.268C110.288 18.4067 110.642 19.76 110.642 21.328L99.4984 23.484C99.8158 24.2307 100.31 24.7907 100.982 25.164C101.673 25.5373 102.513 25.724 103.502 25.724ZM102.858 17.016C101.757 17.016 100.861 17.3707 100.17 18.08C99.4798 18.7893 99.1158 19.7693 99.0784 21.02L106.414 19.592C106.209 18.808 105.789 18.1827 105.154 17.716C104.52 17.2493 103.754 17.016 102.858 17.016ZM122.735 13.712C124.601 13.712 126.104 14.272 127.243 15.392C128.4 16.512 128.979 18.1733 128.979 20.376V29H124.611V21.048C124.611 19.8533 124.349 18.9667 123.827 18.388C123.304 17.7907 122.548 17.492 121.559 17.492C120.457 17.492 119.58 17.8373 118.927 18.528C118.273 19.2 117.947 20.208 117.947 21.552V29H113.579V13.936H117.751V15.7C118.329 15.0653 119.048 14.58 119.907 14.244C120.765 13.8893 121.708 13.712 122.735 13.712ZM142.01 28.272C141.581 28.5893 141.049 28.832 140.414 29C139.798 29.1493 139.154 29.224 138.482 29.224C136.671 29.224 135.281 28.7667 134.31 27.852C133.339 26.9373 132.854 25.5933 132.854 23.82V10.604H137.222V14.272H140.946V17.632H137.222V23.764C137.222 24.3987 137.381 24.8933 137.698 25.248C138.015 25.584 138.473 25.752 139.07 25.752C139.742 25.752 140.339 25.5653 140.862 25.192L142.01 28.272Z" fill="white"/>
<path d="M151.783 0L154.425 7.14042L161.565 9.78261L154.425 12.4248L151.783 19.5652L149.14 12.4248L142 9.78261L149.14 7.14042L151.783 0Z" fill="#F88446"/>
</svg>
