<svg width="30" height="34" viewBox="0 0 30 34" fill="none" xmlns="http://www.w3.org/2000/svg">
<path d="M17.1429 0H21.3857C21.6943 1.51937 22.5429 3.43612 24.0321 5.338C25.4893 7.20162 27.4221 8.5 30 8.5V12.75C26.2436 12.75 23.4214 11.0202 21.4286 8.86337V23.375C21.4286 25.4764 20.8002 27.5307 19.6229 29.2779C18.4456 31.0252 16.7722 32.387 14.8145 33.1912C12.8567 33.9954 10.7024 34.2058 8.62404 33.7958C6.54567 33.3859 4.63657 32.3739 3.13815 30.888C1.63973 29.4021 0.61929 27.5089 0.205877 25.4478C-0.207536 23.3868 0.00464233 21.2505 0.815581 19.309C1.62652 17.3675 2.9998 15.7081 4.76175 14.5406C6.52371 13.3731 8.5952 12.75 10.7143 12.75V17C9.44284 17 8.19994 17.3739 7.14277 18.0744C6.08559 18.7749 5.26163 19.7705 4.77506 20.9354C4.2885 22.1003 4.16119 23.3821 4.40924 24.6187C4.65729 25.8553 5.26955 26.9912 6.1686 27.8828C7.06766 28.7744 8.21312 29.3815 9.46014 29.6275C10.7072 29.8735 11.9997 29.7472 13.1744 29.2647C14.3491 28.7822 15.3531 27.9651 16.0595 26.9168C16.7658 25.8684 17.1429 24.6359 17.1429 23.375V0Z" fill="white"/>
</svg>
